<svg width="141" height="141" viewBox="0 0 141 141" fill="none" xmlns="http://www.w3.org/2000/svg">
<path d="M70.5 0C40.8892 0 16.7988 24.0903 16.7988 53.7012C16.7988 72.8166 22.6137 80.4824 50.5565 117.319C55.4069 123.713 60.9048 130.961 67.1953 139.348C67.9755 140.388 69.1999 141 70.5003 141C71.8007 141 73.0248 140.388 73.805 139.347C80.0585 131.006 85.5325 123.786 90.3623 117.416C118.372 80.4716 124.201 72.7835 124.201 53.7012C124.201 24.0903 100.111 0 70.5 0ZM83.7791 112.424C79.8123 117.656 75.4119 123.46 70.4992 129.991C65.5529 123.418 61.1274 117.584 57.1386 112.326C29.9581 76.4941 25.0605 70.0376 25.0605 53.7012C25.0605 28.6459 45.4447 8.26172 70.5 8.26172C95.5553 8.26172 115.939 28.6459 115.939 53.7012C115.939 70.0057 111.029 76.482 83.7791 112.424Z" fill="white"/>
<path d="M70.5 24.7852C54.5557 24.7852 41.584 37.7569 41.584 53.7012C41.584 69.6455 54.5557 82.6172 70.5 82.6172C86.4443 82.6172 99.416 69.6455 99.416 53.7012C99.416 37.7569 86.4443 24.7852 70.5 24.7852ZM70.5 74.3555C59.1112 74.3555 49.8457 65.09 49.8457 53.7012C49.8457 42.3124 59.1112 33.0469 70.5 33.0469C81.8888 33.0469 91.1543 42.3124 91.1543 53.7012C91.1543 65.09 81.8888 74.3555 70.5 74.3555Z" fill="white"/>
</svg>
