<svg width="101" height="102" viewBox="0 0 101 102" fill="none" xmlns="http://www.w3.org/2000/svg">
<g clip-path="url(#clip0)">
<path d="M100.885 50.9999C100.885 23.1383 78.3041 0.557373 50.4425 0.557373C22.5809 0.557373 0 23.1383 0 50.9999C0 78.8614 22.5809 101.442 50.4425 101.442C50.738 101.442 51.0336 101.442 51.3292 101.423V62.1721H40.4919V49.5417H51.3292V40.2414C51.3292 29.4633 57.9103 23.5915 67.5259 23.5915C72.1367 23.5915 76.0972 23.9264 77.24 24.0841V35.3548H70.6195C65.3979 35.3548 64.3733 37.8375 64.3733 41.4828V49.522H76.8854L75.2499 62.1524H64.3733V99.4916C85.4567 93.4425 100.885 74.0339 100.885 50.9999Z" fill="#FDFDFD"/>
</g>
<defs>
<clipPath id="clip0">
<rect width="100.885" height="100.885" fill="white" transform="translate(0 0.557373)"/>
</clipPath>
</defs>
</svg>
