<svg width="102" height="102" viewBox="0 0 102 102" fill="none" xmlns="http://www.w3.org/2000/svg">
<g clip-path="url(#clip0)">
<path d="M51.1796 1.60742C23.329 1.60742 0.743408 24.2813 0.743408 52.2517C0.743408 74.6229 15.1952 93.6019 35.2461 100.304C37.7682 100.771 38.6888 99.2073 38.6888 97.8643C38.6888 96.66 38.6446 93.4758 38.6194 89.2512C24.5901 92.3093 21.6266 82.4604 21.6266 82.4604C19.3378 76.6091 16.0275 75.0517 16.0275 75.0517C11.4435 71.9116 16.368 71.9747 16.368 71.9747C21.4311 72.3341 24.092 77.1955 24.092 77.1955C28.594 84.9321 35.9018 82.7 38.777 81.4011C39.231 78.1287 40.5362 75.8966 41.9801 74.6292C30.7819 73.3492 19.0036 69.0049 19.0036 49.6034C19.0036 44.0737 20.9708 39.5528 24.1992 36.0092C23.6758 34.7292 21.9482 29.5778 24.691 22.6104C24.691 22.6104 28.9281 21.2485 38.5627 27.7997C42.5854 26.6773 46.8983 26.1162 51.1922 26.0972C55.4735 26.1225 59.7926 26.6773 63.8217 27.806C73.4499 21.2548 77.6808 22.6167 77.6808 22.6167C80.4299 29.5904 78.7023 34.7355 78.1852 36.0155C81.4198 39.5591 83.3682 44.08 83.3682 49.6097C83.3682 69.0616 71.5773 73.3429 60.3412 74.5977C62.1508 76.1614 63.765 79.251 63.765 83.9737C63.765 90.7456 63.7019 96.206 63.7019 97.8643C63.7019 99.2199 64.6099 100.796 67.1698 100.298C87.1892 93.5893 101.628 74.6166 101.628 52.2517C101.628 24.2813 79.0427 1.60742 51.1796 1.60742Z" fill="#FDFDFD"/>
</g>
<defs>
<clipPath id="clip0">
<rect width="100.885" height="100.885" fill="white" transform="translate(0.743408 0.557373)"/>
</clipPath>
</defs>
</svg>
