<svg width="99" height="99" viewBox="0 0 99 99" fill="none" xmlns="http://www.w3.org/2000/svg">
<g clip-path="url(#clip0)">
<path d="M79.247 13.9689H20.2279C17.3882 13.9689 15.0779 16.2778 15.0779 19.1158V79.4063C15.0779 82.2436 17.3868 84.5527 20.2279 84.5527H79.247C82.0858 84.5527 84.3961 82.2436 84.3961 79.4063V19.1172C84.3946 16.2792 82.0858 13.9689 79.247 13.9689ZM49.6462 60.9659H23.809V21.1039H49.4413V28.4618H33.7081V37.3423H47.259V44.726H33.7081V53.6063H49.6477V60.9656H49.6462V60.9659ZM88.9037 0H10.5703C5.46114 0 1.31786 4.14353 1.31786 9.25321V89.2703C1.31786 94.3812 5.46114 98.5243 10.5703 98.5243H88.9051C94.0145 98.5243 98.1576 94.381 98.1576 89.2703V9.25176C98.1576 4.14353 94.0145 0 88.9037 0ZM88.0436 79.4065C88.0436 84.2542 84.0973 88.2019 79.2468 88.2019H20.2279C15.3781 88.2019 11.4304 84.2556 11.4304 79.4065V19.1172C11.4304 14.2689 15.3764 10.3211 20.2279 10.3211H79.247C84.0961 10.3211 88.0439 14.2674 88.0439 19.1172V79.4065H88.0436Z" fill="white"/>
</g>
<defs>
<clipPath id="clip0">
<rect width="98.5245" height="98.5245" fill="white" transform="translate(0.475464)"/>
</clipPath>
</defs>
</svg>
