<svg width="202" height="99" viewBox="0 0 202 99" fill="none" xmlns="http://www.w3.org/2000/svg">
<g clip-path="url(#clip0)">
<path d="M78.8428 13.9829H19.7705C16.9282 13.9829 14.6156 16.2939 14.6156 19.136V79.4818C14.6156 82.3215 16.9266 84.6341 19.7705 84.6341H78.8431C81.6846 84.6341 83.9972 82.3231 83.9972 79.4818V19.136C83.9957 16.2939 81.6844 13.9829 78.8428 13.9829ZM49.4731 29.3616H39.3604V26.1357H29.5244V31.4703L45.5782 40.1572C48.1748 41.5614 49.4731 43.449 49.4731 45.8199V51.3059C49.4731 53.2863 48.4641 55.008 46.4508 56.4726C44.4343 57.9371 42.1178 58.6689 39.4979 58.6689H29.5244C26.8812 58.6689 24.57 57.9426 22.589 56.4838C20.606 55.0302 19.6179 53.3122 19.6179 51.3302V48.0784H29.659V51.3043H39.5318V45.7405L23.5777 37.3105C20.9371 35.906 19.6166 34.0006 19.6166 31.5968V26.1113C19.6166 24.1471 20.612 22.4325 22.6058 20.9682C24.5985 19.5039 26.915 18.7717 29.5555 18.7717H39.4968C42.1167 18.7717 44.4332 19.5081 46.4497 20.9818C48.4633 22.455 49.4721 24.1738 49.4721 26.1372V29.3619H49.4731V29.3616ZM88.5092 0H10.1039C4.98999 0 0.843079 4.14718 0.843079 9.26156V89.3523C0.843079 94.4675 4.99025 98.6139 10.1041 98.6139H88.5108C93.6247 98.6139 97.7716 94.4675 97.7716 89.3523V9.26156C97.771 4.14718 93.6244 0 88.5092 0ZM87.6479 79.4787C87.6479 84.3323 83.6982 88.2834 78.8431 88.2834H19.7705C14.9159 88.2834 10.9647 84.3336 10.9647 79.4787V19.136C10.9647 14.2832 14.9146 10.332 19.7705 10.332H78.8431C83.6967 10.332 87.6479 14.2819 87.6479 19.136V79.4787Z" fill="white"/>
</g>
<g clip-path="url(#clip1)">
<path d="M182.247 13.9689H123.228C120.388 13.9689 118.078 16.2778 118.078 19.1158V79.4063C118.078 82.2436 120.387 84.5527 123.228 84.5527H182.247C185.086 84.5527 187.396 82.2436 187.396 79.4063V19.1172C187.395 16.2792 185.086 13.9689 182.247 13.9689ZM152.646 60.9659H126.809V21.1039H152.441V28.4618H136.708V37.3423H150.259V44.726H136.708V53.6063H152.648V60.9656H152.646V60.9659ZM191.904 0H113.57C108.461 0 104.318 4.14353 104.318 9.25321V89.2703C104.318 94.3812 108.461 98.5243 113.57 98.5243H191.905C197.015 98.5243 201.158 94.381 201.158 89.2703V9.25176C201.158 4.14353 197.015 0 191.904 0ZM191.044 79.4065C191.044 84.2542 187.097 88.2019 182.247 88.2019H123.228C118.378 88.2019 114.43 84.2556 114.43 79.4065V19.1172C114.43 14.2689 118.376 10.3211 123.228 10.3211H182.247C187.096 10.3211 191.044 14.2674 191.044 19.1172V79.4065H191.044Z" fill="white"/>
</g>
<defs>
<clipPath id="clip0">
<rect width="98.6141" height="98.6141" fill="white"/>
</clipPath>
<clipPath id="clip1">
<rect width="98.5245" height="98.5245" fill="white" transform="translate(103.475)"/>
</clipPath>
</defs>
</svg>
