<svg width="148" height="148" viewBox="0 0 148 148" fill="none" xmlns="http://www.w3.org/2000/svg">
<path d="M134.992 21.9688H13.0078C5.82085 21.9688 0 27.8257 0 34.9766V113.023C0 120.217 5.86363 126.031 13.0078 126.031H134.992C142.119 126.031 148 120.241 148 113.023V34.9766C148 27.8385 142.202 21.9688 134.992 21.9688ZM133.171 30.6406C130.513 33.2841 84.7771 78.7791 83.198 80.3498C80.7409 82.8069 77.4745 84.1597 74 84.1597C70.5255 84.1597 67.2591 82.8066 64.7939 80.3417C63.7319 79.2852 18.5009 34.2926 14.8295 30.6406H133.171ZM8.67188 111.258V36.7471L46.1454 74.0231L8.67188 111.258ZM14.835 117.359L52.2937 80.1388L58.6701 86.4817C62.765 90.5766 68.2092 92.8316 74 92.8316C79.7908 92.8316 85.235 90.5766 89.3218 86.4898L95.7063 80.1388L133.165 117.359H14.835ZM139.328 111.258L101.855 74.0231L139.328 36.7471V111.258Z" fill="white"/>
</svg>
