<svg width="139" height="139" viewBox="0 0 139 139" fill="none" xmlns="http://www.w3.org/2000/svg">
<g clip-path="url(#clip0)">
<path d="M109.854 86.1058C107.008 83.1428 103.576 81.5586 99.9379 81.5586C96.3295 81.5586 92.8677 83.1134 89.9047 86.0764L80.6342 95.3176C79.8715 94.9069 79.1087 94.5255 78.3753 94.1441C77.3192 93.616 76.3217 93.1173 75.4709 92.5892C66.7872 87.0739 58.8956 79.8864 51.3267 70.5866C47.6596 65.9513 45.1953 62.0495 43.4057 58.089C45.8113 55.8888 48.0409 53.6005 50.2119 51.4002C51.0333 50.5788 51.8547 49.728 52.6762 48.9066C58.8369 42.7458 58.8369 34.7662 52.6762 28.6055L44.6672 20.5965C43.7578 19.687 42.819 18.7483 41.9389 17.8095C40.1786 15.9906 38.3304 14.113 36.4235 12.3528C33.5779 9.53646 30.1748 8.04028 26.5957 8.04028C23.0166 8.04028 19.5548 9.53646 16.6211 12.3528C16.5918 12.3821 16.5918 12.3821 16.5624 12.4115L6.5879 22.474C2.83278 26.2292 0.691182 30.8057 0.221791 36.1157C-0.482294 44.6821 2.04068 52.6617 3.97691 57.8837C8.72949 70.7039 15.829 82.5854 26.4196 95.3176C39.2692 110.661 54.7298 122.777 72.3906 131.314C79.1381 134.512 88.1445 138.296 98.207 138.942C98.8231 138.971 99.4685 139 100.055 139C106.832 139 112.523 136.565 116.983 131.725C117.012 131.666 117.071 131.637 117.1 131.578C118.626 129.73 120.386 128.058 122.234 126.268C123.495 125.065 124.786 123.804 126.048 122.484C128.952 119.462 130.478 115.941 130.478 112.333C130.478 108.695 128.923 105.204 125.96 102.27L109.854 86.1058ZM120.356 116.998C120.327 116.998 120.327 117.027 120.356 116.998C119.212 118.23 118.039 119.344 116.777 120.577C114.87 122.396 112.934 124.302 111.115 126.444C108.152 129.612 104.661 131.109 100.085 131.109C99.6446 131.109 99.1752 131.109 98.7351 131.079C90.022 130.522 81.9251 127.119 75.8523 124.214C59.2476 116.176 44.6672 104.764 32.5511 90.301C22.5472 78.2435 15.8584 67.0955 11.4285 55.126C8.70016 47.8211 7.7027 42.1298 8.14276 36.7611C8.43612 33.3287 9.75628 30.483 12.1912 28.0481L22.1951 18.0442C23.6326 16.6947 25.1582 15.9612 26.6543 15.9612C28.5026 15.9612 29.9987 17.076 30.9375 18.0148C30.9669 18.0442 30.9962 18.0735 31.0255 18.1028C32.8151 19.775 34.5166 21.5059 36.3062 23.3541C37.2156 24.2929 38.1544 25.2317 39.0932 26.1998L47.1022 34.2088C50.2119 37.3185 50.2119 40.1935 47.1022 43.3032C46.2514 44.154 45.43 45.0048 44.5792 45.8262C42.1149 48.3492 39.7679 50.6961 37.2156 52.9844C37.157 53.0431 37.0983 53.0724 37.0689 53.1311C34.546 55.6541 35.0154 58.1184 35.5434 59.7906C35.5728 59.8786 35.6021 59.9666 35.6314 60.0546C37.7144 65.1006 40.648 69.8531 45.1073 75.5152L45.1366 75.5445C53.2336 85.519 61.7706 93.2933 71.1878 99.2487C72.3906 100.011 73.6227 100.628 74.7962 101.214C75.8523 101.742 76.8498 102.241 77.7005 102.769C77.8179 102.828 77.9352 102.916 78.0526 102.975C79.05 103.473 79.9888 103.708 80.9569 103.708C83.3919 103.708 84.9174 102.182 85.4162 101.684L95.4494 91.6505C96.4468 90.653 98.031 89.4502 99.8792 89.4502C101.698 89.4502 103.194 90.5943 104.104 91.5918C104.133 91.6211 104.133 91.6211 104.162 91.6505L120.327 107.815C123.349 110.807 123.349 113.888 120.356 116.998Z" fill="white"/>
<path d="M75.1189 33.0646C82.8051 34.3555 89.7873 37.9932 95.3613 43.5673C100.935 49.1413 104.544 56.1235 105.864 63.8097C106.187 65.746 107.859 67.0955 109.766 67.0955C110 67.0955 110.206 67.0661 110.44 67.0368C112.611 66.6847 114.049 64.6312 113.697 62.4602C112.113 53.1604 107.712 44.6821 100.994 37.9639C94.2759 31.2458 85.7975 26.8452 76.4977 25.261C74.3268 24.909 72.3025 26.3465 71.9211 28.4881C71.5398 30.6297 72.9479 32.7126 75.1189 33.0646Z" fill="white"/>
<path d="M138.839 61.3161C136.228 46.0022 129.011 32.0672 117.921 20.9778C106.832 9.88849 92.8971 2.67161 77.5832 0.0606238C75.4417 -0.320756 73.4174 1.14609 73.036 3.28768C72.684 5.45861 74.1215 7.48286 76.2924 7.86424C89.9634 10.1819 102.432 16.6653 112.347 26.5518C122.263 36.4677 128.717 48.9359 131.035 62.6069C131.358 64.5431 133.03 65.8926 134.937 65.8926C135.172 65.8926 135.377 65.8633 135.612 65.834C137.753 65.5113 139.22 63.4577 138.839 61.3161Z" fill="white"/>
</g>
<defs>
<clipPath id="clip0">
<rect width="139" height="139" fill="white"/>
</clipPath>
</defs>
</svg>
