<svg width="102" height="102" viewBox="0 0 102 102" fill="none" xmlns="http://www.w3.org/2000/svg">
<g clip-path="url(#clip0)">
<path d="M50.8142 0.566284C22.9598 0.566284 0.371704 23.1544 0.371704 51.0088C0.371704 78.8631 22.9598 101.451 50.8142 101.451C78.6685 101.451 101.257 78.8631 101.257 51.0088C101.257 23.1544 78.6685 0.566284 50.8142 0.566284ZM51.8833 80.3779C51.8825 80.3779 51.8841 80.3779 51.8833 80.3779H51.871C46.8179 80.3756 41.8527 79.1086 37.4431 76.7041L21.4389 80.9013L25.7223 65.2611C23.0799 60.6846 21.6898 55.4922 21.6921 50.1729C21.6991 33.5322 35.2426 19.9941 51.8833 19.9941C59.9589 19.9971 67.5396 23.1406 73.2391 28.8447C78.9395 34.5497 82.0767 42.1327 82.0736 50.1967C82.0667 66.8382 68.5217 80.3779 51.8833 80.3779Z" fill="#FDFDFD"/>
<path d="M51.8933 25.0917C38.0519 25.0917 26.7952 36.3438 26.789 50.1751C26.7875 54.9149 28.1145 59.5307 30.626 63.5247L31.2225 64.4737L28.6871 73.7308L38.1843 71.2401L39.101 71.7835C42.9533 74.0694 47.3698 75.2786 51.8725 75.2802H51.8825C65.7131 75.2802 76.9698 64.0273 76.976 50.1952C76.9783 43.4919 74.3706 37.1897 69.6332 32.4484C64.8957 27.7071 58.595 25.094 51.8933 25.0917ZM66.6529 60.9601C66.0241 62.7211 63.0107 64.329 61.5614 64.546C60.2614 64.74 58.6173 64.8208 56.8101 64.2474C55.7141 63.8995 54.3094 63.4354 52.5091 62.6588C44.9422 59.3922 40 51.7753 39.6229 51.272C39.2457 50.7686 36.5426 47.1826 36.5426 43.4704C36.5426 39.7589 38.4914 37.934 39.1826 37.1797C39.8746 36.4246 40.692 36.236 41.1946 36.236C41.6972 36.236 42.2006 36.2407 42.6401 36.2622C43.1034 36.2853 43.7253 36.0859 44.3372 37.5568C44.9661 39.067 46.4747 42.7784 46.6633 43.1556C46.8518 43.5335 46.9773 43.9737 46.7264 44.4771C46.4747 44.9805 45.6388 46.0665 44.8406 47.0564C44.5058 47.4712 44.0694 47.8407 44.5097 48.5957C44.9491 49.35 46.4639 51.82 48.706 53.8196C51.5877 56.3889 54.0184 57.1847 54.7727 57.5626C55.5262 57.9398 55.9665 57.8767 56.4068 57.3741C56.8463 56.8707 58.2925 55.172 58.7951 54.4169C59.2977 53.6618 59.8011 53.7881 60.4923 54.0398C61.1842 54.2907 64.8926 56.1156 65.6469 56.4928C66.4012 56.8707 66.9038 57.0593 67.0924 57.3741C67.2817 57.6889 67.2817 59.1982 66.6529 60.9601Z" fill="#FDFDFD"/>
</g>
<defs>
<clipPath id="clip0">
<rect width="100.885" height="100.885" fill="white" transform="translate(0.371704 0.566284)"/>
</clipPath>
</defs>
</svg>
