<svg width="101" height="102" viewBox="0 0 101 102" fill="none" xmlns="http://www.w3.org/2000/svg">
<g clip-path="url(#clip0)">
<path d="M44.2745 60.4413L60.6828 50.991L44.2745 41.5408V60.4413Z" fill="#FDFDFD"/>
<path d="M50.5575 0.548584C22.7031 0.548584 0.11499 23.1367 0.11499 50.9911C0.11499 78.8454 22.7031 101.434 50.5575 101.434C78.4118 101.434 101 78.8454 101 50.9911C101 23.1367 78.4118 0.548584 50.5575 0.548584ZM82.0763 51.0426C82.0763 51.0426 82.0763 61.2726 80.7786 66.2055C80.0513 68.9056 77.9223 71.0346 75.2222 71.7612C70.2893 73.0596 50.5575 73.0596 50.5575 73.0596C50.5575 73.0596 30.8772 73.0596 25.8927 71.7096C23.1926 70.983 21.0637 68.8533 20.3363 66.1532C19.0378 61.2726 19.0378 50.9911 19.0378 50.9911C19.0378 50.9911 19.0378 40.7619 20.3363 35.8289C21.0629 33.1288 23.2442 30.9475 25.8927 30.2209C30.8257 28.9225 50.5575 28.9225 50.5575 28.9225C50.5575 28.9225 70.2893 28.9225 75.2222 30.2725C77.9223 30.9991 80.0513 33.1288 80.7786 35.8289C82.1287 40.7619 82.0763 51.0426 82.0763 51.0426Z" fill="#FDFDFD"/>
</g>
<defs>
<clipPath id="clip0">
<rect width="100.885" height="100.885" fill="white" transform="translate(0.11499 0.548584)"/>
</clipPath>
</defs>
</svg>
